<svg xmlns="http://www.w3.org/2000/svg" width="115" height="15" fill="none" viewBox="0 0 115 15"><g id="AutoLease"><path fill="#FDFDE5" d="M0 15L5.10398 3.90135L6.27326 6.47982L2.35711 15H0ZM8.03645 2.62332L13.6972 15H11.3587L6.84862 5.17937L5.67934 2.62332L6.84862 0.067265L8.03645 2.62332Z"/><path fill="#FDFDE5" d="M23.2797 0.112108H25.0429V9.59641C25.0429 10.7175 24.7088 11.8161 24.0778 12.6233C23.8365 12.9596 23.5581 13.2511 23.2797 13.4978C22.2403 14.4619 20.9597 15 19.5491 15C18.1571 15 16.8765 14.4395 15.8371 13.4978C15.5402 13.2287 15.2803 12.9372 15.0205 12.6233C14.3895 11.7937 14.0554 10.6951 14.0554 9.57399V0.112108H15.8371V8.34081C15.8371 10.7623 17.4147 12.7803 19.4192 12.87C19.4749 12.87 19.512 12.87 19.5491 12.87C19.6048 12.87 19.6419 12.87 19.679 12.87C21.7021 12.7803 23.2797 10.7623 23.2797 8.34081V0.112108Z"/><path fill="#FDFDE5" d="M33.1253 15H31.3435V3.34081H33.1253V15ZM37.8395 2.26457H26.8335V0.112108H37.8395V2.26457Z"/><path fill="#FDFDE5" d="M44.5595 2.24215C42.1282 2.24215 40.1608 4.64126 40.1608 7.55605C40.1608 10.4933 42.1282 12.87 44.5595 12.87C46.9723 12.87 48.9397 10.4933 48.9397 7.55605C48.9397 4.64126 46.9723 2.24215 44.5595 2.24215ZM38.3791 7.55605C38.3791 3.43049 41.1445 0.112108 44.5595 0.112108C47.956 0.112108 50.7214 3.43049 50.7214 7.55605C50.7214 11.6816 47.956 15 44.5595 15C41.1445 15 38.3791 11.6816 38.3791 7.55605Z"/><path fill="#FDFDE5" d="M54.262 12.87H62.0757V15H52.4803V0H54.262V12.87Z"/><path fill="#FDFDE5" d="M65.8305 8.09417V12.87H74.962V15H64.0488V3.34081H65.8305V5.9417H73.7556V8.09417H65.8305ZM64.0488 0.112108H74.962V2.26457H64.0488V0.112108Z"/><path fill="#FDFDE5" d="M76.741 15L81.845 3.90135L83.0143 6.47982L79.0981 15H76.741ZM84.7775 2.62332L90.4382 15H88.0997L83.5896 5.17937L82.4203 2.62332L83.5896 0.067265L84.7775 2.62332Z"/><path fill="#FDFDE5" d="M98.5816 6.47982C99.8993 6.47982 101.05 7.35426 101.663 8.63229C101.941 9.26009 102.127 9.97758 102.127 10.7399C102.127 11.5247 101.941 12.2422 101.663 12.87C101.05 14.148 99.8993 15 98.5816 15H94.7582C93.4405 15 92.2897 14.148 91.6773 12.87C91.3989 12.2646 91.2318 11.5919 91.2133 10.852H92.995C93.0507 11.9731 93.8117 12.87 94.7582 12.87H98.5816C99.5467 12.87 100.345 11.9058 100.345 10.7399C100.345 9.57399 99.5467 8.63229 98.5816 8.63229H94.7396C93.756 8.63229 92.8465 8.13901 92.2155 7.33184C92.0113 7.0852 91.8257 6.79372 91.6773 6.47982C91.3803 5.87444 91.2133 5.13453 91.2133 4.3722C91.2133 3.60987 91.3803 2.89238 91.6773 2.26457C92.2897 0.986548 93.4405 0.112108 94.7396 0.112108H98.4888C98.5259 0.112108 98.563 0.112108 98.5816 0.112108C98.6187 0.112108 98.6372 0.112108 98.6744 0.112108C99.955 0.15695 101.05 1.00897 101.644 2.26457C101.663 2.26457 101.663 2.26457 101.663 2.26457C101.941 2.84753 102.108 3.5426 102.127 4.26009H100.345C100.289 3.16144 99.5652 2.30942 98.6558 2.26457H94.7396C93.7745 2.26457 92.995 3.20628 92.995 4.3722C92.995 5.47085 93.6817 6.36771 94.5726 6.47982C94.6283 6.47982 94.684 6.47982 94.7582 6.47982C94.851 6.47982 94.9624 6.47982 95.0552 6.47982H98.5816Z"/><path fill="#FDFDE5" d="M105.869 8.09417V12.87H115V15H104.087V3.34081H105.869V5.9417H113.794V8.09417H105.869ZM104.087 0.112108H115V2.26457H104.087V0.112108Z"/></g></svg>