<svg width="284" height="37" viewBox="0 0 284 37" fill="none" xmlns="http://www.w3.org/2000/svg">
<path d="M0 37L12.6046 9.62332L15.4922 15.9836L5.82104 37H0ZM19.8465 6.47085L33.8262 37H28.051L16.9131 12.7758L14.0255 6.47085L16.9131 0.16592L19.8465 6.47085Z" fill="#FF7F3E"/>
<path d="M57.4907 0.276532H61.845V23.6712C61.845 26.4365 61.02 29.1465 59.4616 31.1375C58.8657 31.9671 58.1782 32.6861 57.4907 33.2945C54.9239 35.6726 51.7613 37 48.2778 37C44.8402 37 41.6776 35.6173 39.1108 33.2945C38.3775 32.6308 37.7358 31.9118 37.0941 31.1375C35.5357 29.0912 34.7107 26.3812 34.7107 23.6158V0.276532H39.1108V20.574C39.1108 26.5471 43.0068 31.5247 47.957 31.7459C48.0945 31.7459 48.1862 31.7459 48.2778 31.7459C48.4153 31.7459 48.507 31.7459 48.5987 31.7459C53.5947 31.5247 57.4907 26.5471 57.4907 20.574V0.276532Z" fill="#FF7F3E"/>
<path d="M81.8051 37H77.4049V8.24066H81.8051V37ZM93.4471 5.58595H66.267V0.276532H93.4471V5.58595Z" fill="#FF7F3E"/>
<path d="M110.043 5.53064C104.038 5.53064 99.1797 11.4484 99.1797 18.6383C99.1797 25.8834 104.038 31.7459 110.043 31.7459C116.001 31.7459 120.86 25.8834 120.86 18.6383C120.86 11.4484 116.001 5.53064 110.043 5.53064ZM94.7796 18.6383C94.7796 8.46188 101.609 0.276532 110.043 0.276532C118.43 0.276532 125.26 8.46188 125.26 18.6383C125.26 28.8147 118.43 37 110.043 37C101.609 37 94.7796 28.8147 94.7796 18.6383Z" fill="#FF7F3E"/>
<path d="M134.004 31.7459H153.3V37H129.603V0H134.004V31.7459Z" fill="#FF7F3E"/>
<path d="M162.573 19.9656V31.7459H185.124V37H158.173V8.24066H162.573V14.6562H182.144V19.9656H162.573ZM158.173 0.276532H185.124V5.58595H158.173V0.276532Z" fill="#FF7F3E"/>
<path d="M189.517 37L202.122 9.62332L205.009 15.9836L195.338 37H189.517ZM209.363 6.47085L223.343 37H217.568L206.43 12.7758L203.542 6.47085L206.43 0.16592L209.363 6.47085Z" fill="#FF7F3E"/>
<path d="M243.454 15.9836C246.708 15.9836 249.55 18.1405 251.062 21.293C251.75 22.8416 252.208 24.6114 252.208 26.4918C252.208 28.4275 251.75 30.1973 251.062 31.7459C249.55 34.8984 246.708 37 243.454 37H234.012C230.757 37 227.916 34.8984 226.403 31.7459C225.715 30.2526 225.303 28.5934 225.257 26.7683H229.657C229.795 29.5336 231.674 31.7459 234.012 31.7459H243.454C245.837 31.7459 247.808 29.3677 247.808 26.4918C247.808 23.6158 245.837 21.293 243.454 21.293H233.966C231.536 21.293 229.291 20.0762 227.732 18.0852C227.228 17.4768 226.77 16.7578 226.403 15.9836C225.67 14.4903 225.257 12.6652 225.257 10.7848C225.257 8.90434 225.67 7.13453 226.403 5.58595C227.916 2.43348 230.757 0.276532 233.966 0.276532H243.224C243.316 0.276532 243.408 0.276532 243.454 0.276532C243.545 0.276532 243.591 0.276532 243.683 0.276532C246.845 0.387143 249.55 2.48879 251.016 5.58595C251.062 5.58595 251.062 5.58595 251.062 5.58595C251.75 7.02392 252.162 8.73842 252.208 10.5082H247.808C247.67 7.79821 245.883 5.69656 243.637 5.58595H233.966C231.582 5.58595 229.657 7.90882 229.657 10.7848C229.657 13.4948 231.353 15.707 233.553 15.9836C233.691 15.9836 233.828 15.9836 234.012 15.9836C234.241 15.9836 234.516 15.9836 234.745 15.9836H243.454Z" fill="#FF7F3E"/>
<path d="M261.449 19.9656V31.7459H284V37H257.049V8.24066H261.449V14.6562H281.021V19.9656H261.449ZM257.049 0.276532H284V5.58595H257.049V0.276532Z" fill="#FF7F3E"/>
</svg>
